<svg width="65" height="80" viewBox="0 0 65 80" fill="none" xmlns="http://www.w3.org/2000/svg">
<path d="M6.95087 69.1371V79.6584H3.7603V69.1371H0V66.4023H10.7112V69.1371H6.95087Z" fill="white"/>
<path d="M17.738 79.6962V78.4048H17.7C17.2822 79.2404 16.2187 79.9621 14.8893 79.9621C12.3824 79.9621 11.5088 78.025 11.5088 76.1258V70.3524H14.5854V75.4042C14.5854 76.4677 14.8513 77.3793 15.9908 77.3793C17.0543 77.3793 17.624 76.4297 17.624 75.3662V70.3145H20.7006V79.6582H17.738V79.6962Z" fill="white"/>
<path d="M26.4357 72.6667V76.2371C26.4357 77.1107 26.7016 77.5665 27.6132 77.5665C27.917 77.5665 28.2969 77.5285 28.5248 77.4146L28.5627 79.6555C28.1449 79.8075 27.4232 79.9214 26.7775 79.9214C24.2707 79.9214 23.473 78.592 23.473 76.6169V72.6667H21.9917V70.3497H23.473V67.8809H26.4737V70.3497H28.6767V72.6667H26.4357Z" fill="white"/>
<path d="M30.1585 71.6413C31.26 70.6157 32.8173 70.084 34.3366 70.084C37.4512 70.084 38.6287 71.6033 38.6287 75.0218V79.7316H35.818V78.7441H35.78C35.3242 79.5037 34.2607 79.9595 33.1212 79.9595C31.6399 79.9595 29.7407 79.2379 29.7407 77.0348C29.7407 74.3381 33.0072 73.8823 35.742 73.8823V73.7303C35.742 72.8187 35.0203 72.363 34.0708 72.363C33.1971 72.363 32.3236 72.7808 31.7538 73.3125L30.1585 71.6413ZM35.78 75.6295H35.4002C34.0328 75.6295 32.5135 75.7814 32.5135 76.9209C32.5135 77.6426 33.2351 77.8705 33.8429 77.8705C35.0963 77.8705 35.78 77.1108 35.78 75.9713V75.6295Z" fill="white"/>
<path d="M44.0221 72.6667V76.2371C44.0221 77.1107 44.288 77.5665 45.1996 77.5665C45.5035 77.5665 45.8833 77.5285 46.1112 77.4146L46.1492 79.6555C45.7314 79.8075 45.0097 79.9214 44.364 79.9214C41.8571 79.9214 41.0595 78.592 41.0595 76.6169V72.6667H39.5781V70.3497H41.0595V67.8809H44.0601V70.3497H46.2631V72.6667H44.0221Z" fill="white"/>
<path d="M52.1886 80.0003C49.3779 80.0003 47.0229 78.0632 47.0229 74.9866C47.0229 71.948 49.3779 70.0488 52.1886 70.0488C55.0373 70.0488 57.3923 71.91 57.3923 74.9866C57.3543 78.0252 54.9993 80.0003 52.1886 80.0003ZM52.1886 72.5937C50.7453 72.5937 49.9856 73.7711 49.9856 74.9866C49.9856 76.2021 50.7453 77.4175 52.1886 77.4175C53.632 77.4175 54.3916 76.2021 54.3916 74.9866C54.3916 73.7711 53.632 72.5937 52.1886 72.5937Z" fill="white"/>
<path d="M64.7989 72.8578C64.5331 72.7818 64.2672 72.7818 64.0013 72.7818C62.368 72.7818 61.7983 74.1492 61.7983 74.9089V79.6947H58.7217V70.3509H61.6843V71.7183H61.7223C62.1781 70.7688 63.1277 70.123 64.2672 70.123C64.4951 70.123 64.7609 70.123 64.9129 70.199L64.7989 72.8578Z" fill="white"/>
<path d="M18.726 10.8683C17.7004 13.4132 19.3717 14.7046 19.3717 14.7046C19.3717 14.7046 18.9918 14.3628 19.7135 12.9574C20.4352 11.552 23.018 9.50095 22.7142 6.42434C21.4228 6.27241 20.1313 6.08249 18.9539 5.89258C19.2197 6.31039 19.9794 7.79172 18.726 10.8683Z" fill="white"/>
<path d="M22.7901 17.2513C21.0428 18.9605 22.1444 20.2139 22.1444 20.2139C22.1444 20.2139 21.2328 18.6566 30.9184 14.3646C38.401 11.0601 40.8319 8.09739 41.5536 6.91992C40.3001 6.99589 38.9328 7.07185 37.4514 7.10984C36.16 10.6043 24.8031 15.2382 22.7901 17.2513Z" fill="white"/>
<path d="M24.9935 21.999C22.9804 23.5563 24.0439 24.8098 24.0439 24.8098C24.9175 22.7207 26.5887 21.9611 37.8317 17.0993C49.9482 11.8196 53.5946 6.00826 54.4302 4.375C53.9744 4.6029 53.3666 4.8308 52.683 5.05869C47.9731 13.0351 28.298 19.4922 24.9935 21.999Z" fill="white"/>
<path d="M29.2474 33.6219C26.6265 35.749 26.7405 37.952 26.7405 37.952C26.7405 37.952 27.728 35.2552 34.6029 31.267C42.8072 26.5951 43.1491 23.1387 43.1491 23.1387C40.1864 27.8106 35.0967 28.9121 29.2474 33.6219Z" fill="white"/>
<path d="M31.716 36.3198C26.6643 39.6243 26.8922 42.7389 26.8922 42.7389C27.9937 39.8142 31.9819 37.6872 34.2229 36.1299C37.6033 33.699 40.9838 30.6603 41.5536 27.8496C40.7939 29.7488 36.7297 33.0153 31.716 36.3198Z" fill="white"/>
<path d="M28.4876 44.1817C26.4746 47.1063 26.8164 49.3853 26.8164 49.3853C27.4241 45.625 30.9565 43.1941 34.2231 40.3454C37.4516 37.5346 39.4647 35.8634 40.5282 31.9512C39.4647 35.2557 30.5387 41.181 28.4876 44.1817Z" fill="white"/>
<path d="M27.994 57.4382C27.994 57.4382 27.7662 52.8802 30.9567 49.1579C33.6915 45.9673 38.7432 41.3714 39.9207 36.0918C37.8316 40.6497 33.0837 44.9798 30.311 48.0564C26.7406 52.0066 27.994 57.4382 27.994 57.4382Z" fill="white"/>
<path d="M35.5524 48.7024C31.2603 54.2859 31.5262 58.0842 31.5262 58.0842C32.4758 58.54 33.0455 58.0462 33.0455 58.0462C33.0455 58.0462 33.5393 53.4123 35.5144 50.5636C40.4522 43.4608 39.8064 40.1562 39.8064 40.1562C39.8064 40.1562 39.8064 43.1189 35.5524 48.7024Z" fill="white"/>
<path d="M33.3867 10.2248C23.3212 5.36301 19.8648 0.00742774 19.8648 0.00742774C18.8772 -0.068538 16.6362 0.463224 16.6362 0.463224C16.6362 0.463224 21.1562 5.59091 29.8163 9.80701C30.462 10.1109 31.3736 10.5667 32.3991 11.0984C32.8169 10.8325 33.2347 10.5667 33.6146 10.3008C33.5006 10.3008 33.4246 10.2628 33.3867 10.2248Z" fill="white"/>
<path d="M43.3005 22.57C43.6804 20.7848 43.1866 18.4298 41.1735 15.9609C40.8316 16.1129 40.4898 16.3028 40.1479 16.4547C42.0851 18.2779 43.4145 20.3669 43.3005 22.57Z" fill="white"/>
<path d="M38.5524 15.0111C38.9702 14.8212 39.35 14.5933 39.7678 14.4034C38.8562 13.5677 37.7547 12.7321 36.4633 11.8965C36.0455 12.1624 35.6277 12.3903 35.1719 12.6561C36.2734 13.3778 37.4509 14.1755 38.5524 15.0111Z" fill="white"/>
<path d="M32.5132 17.8598C33.045 17.6319 33.5767 17.366 34.1085 17.1381C32.8551 16.4164 31.5256 15.7707 30.1583 15.125C29.5885 15.3909 29.0568 15.6568 28.563 15.8847C30.0063 16.5683 31.3357 17.2141 32.5132 17.8598Z" fill="white"/>
<path d="M11.1289 2.96875C11.1289 2.96875 13.104 7.03292 18.3836 10.7173C18.5356 10.3374 18.6495 9.99558 18.7635 9.65373C15.6489 7.79257 13.2939 5.77948 11.1289 2.96875Z" fill="white"/>
<path d="M41.4014 24.7355C41.4773 24.6595 41.5533 24.5456 41.6672 24.4696C41.0975 22.2286 38.9325 20.1776 36.0838 18.3164C35.552 18.5443 35.0202 18.7722 34.5645 19.0001C38.1348 21.0892 40.3758 22.9503 41.4014 24.7355Z" fill="white"/>
<path d="M20.7007 12.1623C21.5743 12.656 22.4859 13.1118 23.4734 13.5676C24.385 13.9475 25.2206 14.3273 26.0563 14.7071C26.5121 14.4412 27.0058 14.1753 27.4996 13.9095C27.1578 13.7575 26.7779 13.6056 26.4361 13.4537C24.5749 12.656 22.9417 11.8964 21.4603 11.1367C21.2704 11.4026 21.0425 11.6685 20.8526 11.9344C20.8146 12.0103 20.7766 12.0863 20.7007 12.1623Z" fill="white"/>
<path d="M38.6282 27.0133C38.8561 26.8614 39.084 26.6715 39.3119 26.5195C37.7926 24.1646 34.8679 21.9996 31.2595 20.4043C30.6898 20.6702 30.196 20.8981 29.7402 21.088C33.3106 22.7212 36.5392 24.5444 38.6282 27.0133Z" fill="white"/>
<path d="M27.6133 20.1396C28.0311 19.9497 28.5248 19.7218 29.0186 19.4939C28.6008 19.342 28.221 19.228 27.8032 19.0761C26.7017 18.7343 25.6761 18.3544 24.8025 17.9746C24.4987 18.1645 24.2328 18.3544 24.0049 18.5064C24.5746 18.8102 25.1823 19.1141 25.866 19.38C26.4358 19.6079 27.0055 19.8738 27.6133 20.1396Z" fill="white"/>
<path d="M22.5995 16.9096C20.6243 15.8461 19.5988 14.9725 19.4849 14.8965C19.5608 15.0104 20.2065 16.074 22.1437 17.4034C22.2576 17.2894 22.3716 17.1375 22.5235 16.9855C22.5235 16.9476 22.5615 16.9476 22.5995 16.9096Z" fill="white"/>
<path d="M40.11 29.2152C40.1859 29.1013 40.2999 29.0253 40.3759 28.9114C40.2999 28.5695 40.186 28.2657 40.072 27.9238C39.9201 28.0378 39.7681 28.1897 39.6162 28.3037C39.7681 28.6075 39.9581 28.9114 40.11 29.2152Z" fill="white"/>
<path d="M39.2744 33.3192C39.3884 33.1672 39.4644 33.0533 39.5783 32.9393C39.5403 32.6735 39.4644 32.4456 39.3884 32.1797C39.2365 32.3316 39.0845 32.4836 38.9326 32.6355C39.0466 32.8634 39.1605 33.0913 39.2744 33.3192Z" fill="white"/>
<path d="M37.9829 31.23C38.2108 31.0401 38.4387 30.8502 38.6666 30.6603C38.4387 30.3185 38.2108 29.9766 37.9069 29.6348C37.641 29.8247 37.3752 30.0146 37.0713 30.2045C37.3752 30.5464 37.679 30.8882 37.9829 31.23Z" fill="white"/>
<path d="M24.4611 21.9614C22.7519 21.2397 22.1821 20.2521 22.1821 20.2901C22.2581 20.556 22.7899 21.4676 24.0053 22.4552C24.1193 22.2652 24.2712 22.1133 24.4611 21.9614Z" fill="white"/>
<path d="M35.5518 28.9505C35.8936 28.7606 36.1975 28.5707 36.5393 28.3808C35.5138 27.5451 34.2224 26.7475 32.6651 25.9878C29.7404 24.5445 27.7653 23.6329 26.284 22.9492C25.9801 23.1391 25.7142 23.329 25.4863 23.519C26.322 24.0127 27.3475 24.5825 28.6389 25.1522C31.6395 26.4436 33.8805 27.6591 35.5518 28.9505Z" fill="white"/>
<path d="M38.8185 37.3816C38.8565 37.3436 38.8945 37.2677 38.8945 37.2297C38.8185 37.0398 38.7426 36.8119 38.6666 36.584C38.6286 36.66 38.5526 36.6979 38.5146 36.7739C38.6286 37.0018 38.7425 37.1917 38.8185 37.3816Z" fill="white"/>
<path d="M36.0081 32.824C35.6283 32.4441 35.1725 32.0263 34.6787 31.6465C34.4128 31.7984 34.1849 31.9503 33.957 32.1023C34.5268 32.4821 35.0206 32.8619 35.4763 33.2418C35.6663 33.0898 35.8182 32.9379 36.0081 32.824Z" fill="white"/>
<path d="M31.0701 29.3305C26.4742 26.9755 24.575 25.4562 24.1952 25.1523H24.1572C24.3092 25.4942 25.3727 27.2794 32.0957 30.9257C32.1336 30.9257 32.1716 30.9637 32.1716 30.9637C32.4375 30.7738 32.7413 30.5839 33.0072 30.432C32.4375 30.0901 31.7918 29.7103 31.0701 29.3305Z" fill="white"/>
<path d="M37.489 35.294C37.6029 35.18 37.6789 35.1041 37.7928 34.9901C37.6409 34.7622 37.451 34.4963 37.2611 34.2305C37.1471 34.3444 36.9952 34.4584 36.8433 34.5723C37.0712 34.8002 37.299 35.0281 37.489 35.294Z" fill="white"/>
<path d="M35.3237 51.6644C36.3113 54.2093 36.1973 55.9185 36.1973 55.9185C36.1973 55.9185 36.7291 56.4123 37.2229 55.9185C37.2229 55.9185 37.1469 53.6395 35.9314 50.7148C35.8935 50.7528 35.8935 50.7908 35.8555 50.7908C35.6656 51.0567 35.4757 51.3606 35.3237 51.6644Z" fill="white"/>
<path d="M34.3742 49.6133C34.5641 49.3474 34.7541 49.0435 34.9819 48.7776C34.6021 48.0939 34.1843 47.4103 33.6525 46.7266C33.4247 46.9545 33.1968 47.2203 33.0068 47.4482C33.5766 48.2079 34.0324 48.9296 34.3742 49.6133Z" fill="white"/>
<path d="M29.7025 42.2074C29.2467 41.7516 28.8289 41.2958 28.4491 40.916C28.2971 41.1059 28.1452 41.2579 28.0312 41.4478C28.3351 41.8656 28.677 42.3594 29.0948 42.8531C29.2847 42.6252 29.5126 42.4353 29.7025 42.2074Z" fill="white"/>
<path d="M26.7016 38.1055C26.7016 38.1055 26.7396 38.1055 26.7016 38.1055C26.7016 38.3713 26.6637 39.207 27.2714 40.1565C27.3473 40.0426 27.4233 39.8907 27.4993 39.7767C27.0815 39.245 26.8156 38.5233 26.7016 38.1055Z" fill="white"/>
<path d="M30.9937 45.0147C31.2975 45.3186 31.5254 45.6225 31.7913 45.9263C31.8673 45.8504 31.9432 45.7744 32.0192 45.6984C32.1711 45.5465 32.3231 45.3946 32.437 45.2426C31.9432 44.6729 31.4495 44.1032 30.9937 43.6094C30.7278 43.8373 30.4999 44.0652 30.272 44.2931C30.4999 44.483 30.7278 44.7489 30.9937 45.0147Z" fill="white"/>
<path d="M30.0823 56.032C30.0823 56.032 30.614 56.5258 31.1458 56.108C31.1458 56.108 31.6016 53.6011 30.3861 50.5625C30.1962 50.8664 30.0063 51.1702 29.8164 51.5121C30.652 54.1709 30.0823 56.032 30.0823 56.032Z" fill="white"/>
<path d="M28.8671 47.7903C28.6012 47.4484 28.4113 47.1066 28.2214 46.8027C28.1074 46.9926 27.9934 47.1826 27.9175 47.3725C28.1454 47.8283 28.4113 48.322 28.7151 48.8918C28.7911 49.0437 28.8671 49.1957 28.943 49.3476C29.095 49.1197 29.2469 48.8538 29.3988 48.6259C29.2469 48.2841 29.057 48.0562 28.8671 47.7903Z" fill="white"/>
<path d="M26.8916 42.8516C26.8536 43.1934 26.8156 44.2949 27.2334 45.6243C27.3094 45.4724 27.3853 45.3205 27.4613 45.1685C27.0435 44.181 26.9295 43.2694 26.8916 42.8516Z" fill="white"/>
</svg>
