<svg width="243" height="64" viewBox="0 0 243 64" fill="none" xmlns="http://www.w3.org/2000/svg">
<path d="M2.25035 33.2393V36.4899H0V26.765H3.42213C4.10567 26.765 4.69156 26.8473 5.1798 27.012C5.67248 27.1721 6.07638 27.3946 6.39152 27.6794C6.7111 27.9642 6.94634 28.3001 7.09725 28.6873C7.24816 29.0744 7.32362 29.4927 7.32362 29.9421C7.32362 30.4271 7.24595 30.8721 7.0906 31.277C6.93525 31.6819 6.69778 32.029 6.37821 32.3182C6.05863 32.6075 5.6525 32.8344 5.15982 32.999C4.67158 33.1592 4.09235 33.2393 3.42213 33.2393H2.25035ZM2.25035 31.5373H3.42213C4.00802 31.5373 4.42968 31.3972 4.68712 31.1168C4.94455 30.8365 5.07327 30.4449 5.07327 29.9421C5.07327 29.7196 5.03998 29.5171 4.9734 29.3347C4.90682 29.1523 4.80474 28.9965 4.66714 28.8675C4.53399 28.734 4.3631 28.6317 4.15449 28.5605C3.95032 28.4893 3.7062 28.4537 3.42213 28.4537H2.25035V31.5373Z" fill="white"/>
<path d="M20.2846 31.6241C20.2846 32.3271 20.1625 32.9812 19.9184 33.5864C19.6787 34.1916 19.3392 34.7189 18.8998 35.1683C18.4603 35.6133 17.9299 35.9626 17.3085 36.2162C16.6916 36.4698 16.0058 36.5966 15.2513 36.5966C14.4967 36.5966 13.8087 36.4698 13.1873 36.2162C12.5659 35.9626 12.0333 35.6133 11.5895 35.1683C11.15 34.7189 10.8083 34.1916 10.5641 33.5864C10.3245 32.9812 10.2046 32.3271 10.2046 31.6241C10.2046 30.921 10.3245 30.2669 10.5641 29.6618C10.8083 29.0566 11.15 28.5315 11.5895 28.0866C12.0333 27.6416 12.5659 27.2923 13.1873 27.0387C13.8087 26.785 14.4967 26.6582 15.2513 26.6582C16.0058 26.6582 16.6916 26.7872 17.3085 27.0453C17.9299 27.299 18.4603 27.6483 18.8998 28.0932C19.3392 28.5382 19.6787 29.0633 19.9184 29.6684C20.1625 30.2736 20.2846 30.9255 20.2846 31.6241ZM17.981 31.6241C17.981 31.1435 17.9188 30.7119 17.7946 30.3292C17.6703 29.9421 17.4905 29.615 17.2553 29.3481C17.0245 29.0811 16.7404 28.8764 16.4031 28.734C16.0657 28.5916 15.6818 28.5204 15.2513 28.5204C14.8163 28.5204 14.4279 28.5916 14.0861 28.734C13.7488 28.8764 13.4625 29.0811 13.2273 29.3481C12.9965 29.615 12.8189 29.9421 12.6947 30.3292C12.5704 30.7119 12.5082 31.1435 12.5082 31.6241C12.5082 32.1091 12.5704 32.5452 12.6947 32.9323C12.8189 33.315 12.9965 33.6398 13.2273 33.9068C13.4625 34.1738 13.7488 34.3785 14.0861 34.5209C14.4279 34.6588 14.8163 34.7278 15.2513 34.7278C15.6818 34.7278 16.0657 34.6588 16.4031 34.5209C16.7404 34.3785 17.0245 34.1738 17.2553 33.9068C17.4905 33.6398 17.6703 33.315 17.7946 32.9323C17.9188 32.5452 17.981 32.1091 17.981 31.6241Z" fill="white"/>
<path d="M22.8475 26.765H24.7383C24.9336 26.765 25.0956 26.8095 25.2243 26.8985C25.3575 26.9875 25.444 27.1054 25.484 27.2522L26.8155 32.3249C26.8599 32.4896 26.9043 32.6653 26.9487 32.8522C26.9931 33.0391 27.0264 33.2349 27.0486 33.4396C27.093 33.2304 27.1418 33.0346 27.195 32.8522C27.2483 32.6653 27.2993 32.4896 27.3482 32.3249L28.9194 27.2522C28.9594 27.1276 29.0437 27.0164 29.1724 26.9185C29.3056 26.8162 29.4654 26.765 29.6518 26.765H30.3176C30.5129 26.765 30.6726 26.8095 30.7969 26.8985C30.9256 26.983 31.0144 27.1009 31.0632 27.2522L32.6212 32.3249C32.67 32.4807 32.721 32.6475 32.7743 32.8255C32.8276 32.999 32.8742 33.1859 32.9141 33.3862C32.9496 33.1904 32.9851 33.0035 33.0206 32.8255C33.0606 32.6475 33.1005 32.4807 33.1405 32.3249L34.4721 27.2522C34.5076 27.1232 34.5919 27.0097 34.725 26.9118C34.8582 26.8139 35.018 26.765 35.2044 26.765H36.9754L33.9794 36.4899H31.9421L30.1178 30.4627C30.0868 30.3693 30.0535 30.2669 30.018 30.1557C29.9869 30.0444 29.9558 29.9265 29.9247 29.8019C29.8937 29.9265 29.8604 30.0444 29.8249 30.1557C29.7938 30.2669 29.7627 30.3693 29.7317 30.4627L27.8808 36.4899H25.8435L22.8475 26.765Z" fill="white"/>
<path d="M46.3091 26.765V28.5004H42.3277V30.7697H45.377V32.4384H42.3277V34.7545H46.3091V36.4899H40.064V26.765H46.3091Z" fill="white"/>
<path d="M52.0627 32.8923V36.4899H49.8124V26.765H52.9682C53.6695 26.765 54.2665 26.8384 54.7592 26.9853C55.2563 27.1276 55.6602 27.3279 55.9709 27.586C56.286 27.8441 56.5146 28.1489 56.6566 28.5004C56.7987 28.8519 56.8697 29.2346 56.8697 29.6484C56.8697 29.9643 56.8275 30.2625 56.7432 30.5428C56.6589 30.8231 56.5324 31.0834 56.3637 31.3237C56.1995 31.5596 55.9953 31.7709 55.7512 31.9578C55.5115 32.1447 55.2341 32.2982 54.919 32.4184C55.0699 32.494 55.2097 32.5874 55.3384 32.6987C55.4716 32.8099 55.587 32.9457 55.6846 33.1058L57.7485 36.4899H55.7112C55.334 36.4899 55.0632 36.3475 54.899 36.0627L53.2878 33.2393C53.2168 33.1147 53.1324 33.0257 53.0348 32.9724C52.9416 32.919 52.8084 32.8923 52.6353 32.8923H52.0627ZM52.0627 31.3371H52.9682C53.2745 31.3371 53.5341 31.2993 53.7472 31.2236C53.9647 31.1435 54.1422 31.0345 54.2798 30.8966C54.4174 30.7586 54.5173 30.5984 54.5794 30.416C54.6415 30.2291 54.6726 30.0289 54.6726 29.8153C54.6726 29.3881 54.5328 29.0544 54.2532 28.8141C53.978 28.5738 53.5497 28.4537 52.9682 28.4537H52.0627V31.3371Z" fill="white"/>
<path d="M67.1322 26.765V28.5004H63.1508V30.7697H66.2001V32.4384H63.1508V34.7545H67.1322V36.4899H60.8871V26.765H67.1322Z" fill="white"/>
<path d="M79.4371 31.6241C79.4371 32.3271 79.3151 32.9768 79.0709 33.5731C78.8313 34.1649 78.4917 34.6788 78.0523 35.1149C77.6129 35.5465 77.0825 35.8847 76.4611 36.1294C75.8441 36.3697 75.1584 36.4899 74.4038 36.4899H70.6355V26.765H74.4038C75.1584 26.765 75.8441 26.8874 76.4611 27.1321C77.0825 27.3768 77.6129 27.715 78.0523 28.1466C78.4917 28.5783 78.8313 29.0922 79.0709 29.6885C79.3151 30.2803 79.4371 30.9255 79.4371 31.6241ZM77.1335 31.6241C77.1335 31.1435 77.0714 30.7097 76.9471 30.3225C76.8228 29.9354 76.6431 29.6084 76.4078 29.3414C76.177 29.0699 75.8929 28.863 75.5556 28.7206C75.2183 28.5738 74.8343 28.5004 74.4038 28.5004H72.8991V34.7545H74.4038C74.8343 34.7545 75.2183 34.6833 75.5556 34.5409C75.8929 34.394 76.177 34.1871 76.4078 33.9201C76.6431 33.6487 76.8228 33.3194 76.9471 32.9323C77.0714 32.5452 77.1335 32.1091 77.1335 31.6241Z" fill="white"/>
<path d="M87.5315 36.4899V26.765H91.1001C91.7703 26.765 92.3406 26.8273 92.8111 26.9519C93.2816 27.0765 93.6655 27.2522 93.9629 27.4792C94.2603 27.7061 94.4756 27.982 94.6087 28.3068C94.7463 28.6317 94.8151 28.9943 94.8151 29.3948C94.8151 29.6128 94.7841 29.8242 94.7219 30.0289C94.6598 30.2291 94.5621 30.4182 94.429 30.5962C94.2958 30.7742 94.1249 30.9366 93.9163 31.0834C93.7077 31.2258 93.4569 31.3504 93.164 31.4572C93.8031 31.613 94.2758 31.8666 94.5821 32.2181C94.8884 32.5652 95.0415 33.0124 95.0415 33.5597C95.0415 33.9735 94.9616 34.3584 94.8018 34.7144C94.642 35.0704 94.4068 35.3819 94.0961 35.6489C93.7898 35.9114 93.4103 36.1183 92.9576 36.2696C92.5049 36.4164 91.9878 36.4899 91.4063 36.4899H87.5315ZM89.7818 32.365V34.7878H91.3664C91.6638 34.7878 91.9057 34.75 92.0921 34.6744C92.2829 34.5987 92.4316 34.5008 92.5382 34.3807C92.6447 34.2605 92.7179 34.1248 92.7579 33.9735C92.7978 33.8222 92.8178 33.6687 92.8178 33.513C92.8178 33.335 92.7934 33.1748 92.7445 33.0324C92.7002 32.89 92.6203 32.7699 92.5049 32.672C92.3939 32.5741 92.2452 32.4985 92.0588 32.4451C91.8724 32.3917 91.6371 32.365 91.3531 32.365H89.7818ZM89.7818 30.8565H90.9536C91.2021 30.8565 91.4263 30.8387 91.626 30.8031C91.8258 30.7675 91.9944 30.7052 92.132 30.6162C92.2741 30.5272 92.3806 30.4049 92.4516 30.2491C92.5271 30.0934 92.5648 29.8976 92.5648 29.6618C92.5648 29.4304 92.5359 29.239 92.4782 29.0877C92.4205 28.932 92.3318 28.8074 92.2119 28.714C92.0921 28.6205 91.9389 28.5538 91.7525 28.5137C91.5705 28.4737 91.3531 28.4537 91.1001 28.4537H89.7818V30.8565Z" fill="white"/>
<path d="M103.323 32.7921V36.4899H101.072V32.7921L97.557 26.765H99.5411C99.7364 26.765 99.8917 26.8117 100.007 26.9052C100.123 26.9942 100.216 27.1098 100.287 27.2522L101.658 30.0823C101.769 30.3092 101.871 30.5183 101.965 30.7097C102.058 30.901 102.14 31.0901 102.211 31.277C102.277 31.0857 102.357 30.8943 102.451 30.703C102.544 30.5117 102.644 30.3047 102.75 30.0823L104.108 27.2522C104.135 27.1944 104.17 27.1365 104.215 27.0787C104.264 27.0209 104.317 26.9697 104.375 26.9252C104.437 26.8762 104.506 26.8384 104.581 26.8117C104.661 26.7806 104.748 26.765 104.841 26.765H106.838L103.323 32.7921Z" fill="white"/>
<g filter="url(#filter0_dd_5402_73442)">
<path d="M128.661 25.4248V41.8875H123.52V25.4248H117.469V21H134.713V25.4248H128.661Z" fill="white"/>
<path d="M144.928 41.8867V39.8044H144.863C144.148 41.1058 142.456 42.3422 140.308 42.3422C136.274 42.3422 134.842 39.2188 134.842 36.1605V26.8555H139.853V34.9892C139.853 36.6811 140.308 38.1777 142.065 38.1777C143.757 38.1777 144.733 36.6811 144.733 34.9242V26.8555H149.679V41.8867H144.928Z" fill="white"/>
<path d="M158.921 30.563V36.2892C158.921 37.6557 159.376 38.3714 160.808 38.3714C161.263 38.3714 161.914 38.3064 162.239 38.1112L162.304 41.7551C161.654 42.0154 160.482 42.2106 159.441 42.2106C155.407 42.2106 154.105 40.0633 154.105 36.8748V30.563H151.698V26.854H154.105V22.8848H158.986V26.854H162.5V30.563H158.921V30.563Z" fill="white"/>
<path d="M164.969 28.9362C166.726 27.2444 169.199 26.3984 171.672 26.3984C176.682 26.3984 178.569 28.8711 178.569 34.337V41.8851H174.014V40.2584H173.949C173.168 41.4947 171.476 42.2105 169.719 42.2105C167.312 42.2105 164.253 41.0392 164.253 37.5254C164.253 33.1657 169.524 32.45 173.884 32.45V32.1897C173.884 30.6931 172.713 30.0424 171.151 30.0424C169.719 30.0424 168.353 30.7581 167.442 31.6041L164.969 28.9362ZM174.079 35.3781H173.429C171.281 35.3781 168.808 35.6384 168.808 37.4604C168.808 38.6316 169.98 39.0221 170.956 39.0221C172.973 39.0221 174.079 37.7857 174.079 35.9638V35.3781V35.3781Z" fill="white"/>
<path d="M187.744 30.563V36.2892C187.744 37.6557 188.2 38.3714 189.632 38.3714C190.087 38.3714 190.738 38.3064 191.063 38.1112L191.128 41.7551C190.478 42.0154 189.306 42.2106 188.265 42.2106C184.231 42.2106 182.929 40.0633 182.929 36.8748V30.563H180.521V26.854H182.929V22.8848H187.81V26.854H191.323V30.563H187.744V30.563Z" fill="white"/>
<path d="M201.41 42.4057C196.855 42.4057 193.081 39.2823 193.081 34.337C193.081 29.3917 196.855 26.3984 201.41 26.3984C205.965 26.3984 209.739 29.3917 209.739 34.337C209.739 39.2173 205.965 42.4057 201.41 42.4057ZM201.41 30.4979C199.068 30.4979 197.896 32.3849 197.896 34.337C197.896 36.2891 199.133 38.2412 201.475 38.2412C203.818 38.2412 205.054 36.2891 205.054 34.337C204.989 32.3849 203.753 30.4979 201.41 30.4979Z" fill="white"/>
<path d="M221.325 30.8883C220.87 30.7581 220.479 30.7581 220.089 30.7581C217.421 30.7581 216.575 32.9055 216.575 34.1418V41.8851H211.629V26.8539H216.38V29.0012H216.445C217.226 27.5046 218.657 26.3984 220.544 26.3984C220.935 26.3984 221.39 26.3984 221.585 26.5286L221.325 30.8883Z" fill="white"/>
</g>
<path d="M128.661 25.4248V41.8875H123.52V25.4248H117.469V21H134.713V25.4248H128.661Z" fill="#93C5FD"/>
<path d="M144.928 41.8867V39.8044H144.863C144.148 41.1058 142.456 42.3422 140.308 42.3422C136.274 42.3422 134.842 39.2188 134.842 36.1605V26.8555H139.853V34.9892C139.853 36.6811 140.308 38.1777 142.065 38.1777C143.757 38.1777 144.733 36.6811 144.733 34.9242V26.8555H149.679V41.8867H144.928Z" fill="#93C5FD"/>
<path d="M158.921 30.563V36.2892C158.921 37.6557 159.376 38.3714 160.808 38.3714C161.263 38.3714 161.914 38.3064 162.239 38.1112L162.304 41.7551C161.654 42.0154 160.482 42.2106 159.441 42.2106C155.407 42.2106 154.105 40.0633 154.105 36.8748V30.563H151.698V26.854H154.105V22.8848H158.986V26.854H162.5V30.563H158.921V30.563Z" fill="#93C5FD"/>
<path d="M164.969 28.9362C166.726 27.2444 169.199 26.3984 171.672 26.3984C176.682 26.3984 178.569 28.8711 178.569 34.337V41.8851H174.014V40.2584H173.949C173.168 41.4947 171.476 42.2105 169.719 42.2105C167.312 42.2105 164.253 41.0392 164.253 37.5254C164.253 33.1657 169.524 32.45 173.884 32.45V32.1897C173.884 30.6931 172.713 30.0424 171.151 30.0424C169.719 30.0424 168.353 30.7581 167.442 31.6041L164.969 28.9362ZM174.079 35.3781H173.429C171.281 35.3781 168.808 35.6384 168.808 37.4604C168.808 38.6316 169.98 39.0221 170.956 39.0221C172.973 39.0221 174.079 37.7857 174.079 35.9638V35.3781V35.3781Z" fill="#93C5FD"/>
<path d="M187.744 30.563V36.2892C187.744 37.6557 188.2 38.3714 189.632 38.3714C190.087 38.3714 190.738 38.3064 191.063 38.1112L191.128 41.7551C190.478 42.0154 189.306 42.2106 188.265 42.2106C184.231 42.2106 182.929 40.0633 182.929 36.8748V30.563H180.521V26.854H182.929V22.8848H187.81V26.854H191.323V30.563H187.744V30.563Z" fill="#93C5FD"/>
<path d="M201.41 42.4057C196.855 42.4057 193.081 39.2823 193.081 34.337C193.081 29.3917 196.855 26.3984 201.41 26.3984C205.965 26.3984 209.739 29.3917 209.739 34.337C209.739 39.2173 205.965 42.4057 201.41 42.4057ZM201.41 30.4979C199.068 30.4979 197.896 32.3849 197.896 34.337C197.896 36.2891 199.133 38.2412 201.475 38.2412C203.818 38.2412 205.054 36.2891 205.054 34.337C204.989 32.3849 203.753 30.4979 201.41 30.4979Z" fill="#93C5FD"/>
<path d="M221.325 30.8883C220.87 30.7581 220.479 30.7581 220.089 30.7581C217.421 30.7581 216.575 32.9055 216.575 34.1418V41.8851H211.629V26.8539H216.38V29.0012H216.445C217.226 27.5046 218.657 26.3984 220.544 26.3984C220.935 26.3984 221.39 26.3984 221.585 26.5286L221.325 30.8883Z" fill="#93C5FD"/>
<defs>
<filter id="filter0_dd_5402_73442" x="96.4688" y="0" width="146.117" height="63.4062" filterUnits="userSpaceOnUse" color-interpolation-filters="sRGB">
<feFlood flood-opacity="0" result="BackgroundImageFix"/>
<feColorMatrix in="SourceAlpha" type="matrix" values="0 0 0 0 0 0 0 0 0 0 0 0 0 0 0 0 0 0 127 0" result="hardAlpha"/>
<feOffset/>
<feGaussianBlur stdDeviation="10.5"/>
<feComposite in2="hardAlpha" operator="out"/>
<feColorMatrix type="matrix" values="0 0 0 0 0.231373 0 0 0 0 0.509804 0 0 0 0 0.964706 0 0 0 1 0"/>
<feBlend mode="normal" in2="BackgroundImageFix" result="effect1_dropShadow_5402_73442"/>
<feColorMatrix in="SourceAlpha" type="matrix" values="0 0 0 0 0 0 0 0 0 0 0 0 0 0 0 0 0 0 127 0" result="hardAlpha"/>
<feOffset/>
<feGaussianBlur stdDeviation="5.04"/>
<feComposite in2="hardAlpha" operator="out"/>
<feColorMatrix type="matrix" values="0 0 0 0 0.231373 0 0 0 0 0.509804 0 0 0 0 0.964706 0 0 0 1 0"/>
<feBlend mode="normal" in2="effect1_dropShadow_5402_73442" result="effect2_dropShadow_5402_73442"/>
<feBlend mode="normal" in="SourceGraphic" in2="effect2_dropShadow_5402_73442" result="shape"/>
</filter>
</defs>
</svg>
