<svg width="420" height="67" viewBox="0 0 420 67" fill="none" xmlns="http://www.w3.org/2000/svg">
<path d="M359.578 62.7758C359.832 62.7758 360.276 62.7441 360.911 62.6806C361.545 62.6172 362.211 62.5538 362.909 62.4903C363.67 62.3635 364.336 62.2366 364.907 62.1097C365.541 61.9828 365.985 61.8877 366.239 61.8243C366.556 61.6974 366.937 61.4119 367.381 60.9679C367.888 60.4604 368.142 60.1115 368.142 59.9212V40.8908L355.772 20.4332H360.53V19.0059C360.53 18.879 360.308 18.4667 359.864 17.7689C359.42 17.0711 358.881 16.2782 358.246 15.3901C357.675 14.4386 357.073 13.5188 356.438 12.6307C355.804 11.6792 355.265 10.9497 354.821 10.4422C354.377 9.87132 353.806 9.17354 353.108 8.34889C352.474 7.52424 351.744 6.76302 350.92 6.06525C350.095 5.36746 349.207 4.79655 348.255 4.35251C347.304 3.84503 346.321 3.65473 345.306 3.7816V2.83008H376.706V3.7816C376.452 3.7816 375.945 3.81331 375.183 3.87675C374.486 3.94019 373.724 4.09877 372.9 4.35251C372.139 4.54281 371.472 4.82827 370.902 5.20888C370.331 5.58949 370.045 6.06524 370.045 6.63616C370.045 7.71454 370.331 8.82465 370.902 9.96647C371.472 11.1083 372.107 12.2818 372.805 13.4871C373.566 14.6924 374.295 15.8976 374.993 17.1029C375.754 18.2447 376.325 19.3548 376.706 20.4332H371.948C372.265 21.7653 372.709 23.1292 373.28 24.5247C373.915 25.9203 374.644 27.2841 375.469 28.6162C376.357 29.9484 377.309 31.1853 378.323 32.3272C379.338 33.469 380.385 34.4205 381.463 35.1817C382.542 34.3571 383.525 33.1518 384.413 31.566C385.365 29.9167 386.316 28.2991 387.268 26.7132C388.283 25.1273 389.361 23.7318 390.503 22.5265C391.708 21.3213 393.135 20.7186 394.785 20.7186C394.912 20.7186 395.229 20.7504 395.736 20.8138C396.244 20.8772 396.561 20.9089 396.688 20.9089L384.318 38.9878V58.9697C384.318 59.9212 384.762 60.6507 385.65 61.1582C386.538 61.6657 387.553 62.0463 388.695 62.3C389.837 62.4903 390.915 62.6172 391.93 62.6806C392.945 62.7441 393.58 62.7758 393.833 62.7758V63.7273H359.578V62.7758ZM404.395 8.06343C404.395 7.23878 404.141 6.57272 403.634 6.06525C403.19 5.55777 402.619 5.17716 401.921 4.92342C401.287 4.60625 400.557 4.38423 399.733 4.25736C398.971 4.06706 398.274 3.90847 397.639 3.7816V2.83008H420C420 3.33756 419.778 3.74988 419.334 4.06705C418.953 4.32079 418.478 4.54281 417.907 4.73312C417.336 4.85999 416.765 5.01857 416.194 5.20888C415.623 5.33575 415.147 5.49433 414.767 5.68464C412.356 7.14363 410.485 8.82465 409.153 10.7277C407.821 12.6307 406.647 14.3435 405.632 15.8659C404.617 17.3883 403.57 18.5619 402.492 19.3865C401.477 20.2112 400.082 20.3063 398.305 19.672C398.305 18.5301 398.623 17.5152 399.257 16.6271C399.891 15.739 400.589 14.8827 401.35 14.058C402.111 13.1699 402.809 12.2818 403.444 11.3938C404.078 10.4422 404.395 9.33213 404.395 8.06343Z" fill="white"/>
<path d="M291.758 61.58C292.583 61.5166 293.534 61.3897 294.613 61.1994C295.754 61.0726 296.801 60.8188 297.753 60.4382C298.768 60.0576 299.592 59.5184 300.227 58.8206C300.924 58.1229 301.273 57.1713 301.273 55.9661L301.368 9.91254C298.704 9.91254 296.167 9.97597 293.756 10.1028C291.409 10.2297 289.252 10.6738 287.286 11.435C285.383 12.1328 283.67 13.3063 282.148 14.9556C280.689 16.6049 279.483 18.952 278.532 21.9968H276.629V6.29677H305.175L306.126 3.91797H339.429V19.3326C338.541 19.3326 337.78 18.952 337.146 18.1908C336.511 17.3661 335.909 16.4146 335.338 15.3362C334.83 14.2578 334.291 13.1794 333.72 12.101C333.213 11.0226 332.578 10.198 331.817 9.62708C330.548 8.739 329.248 8.10465 327.916 7.72405C326.647 7.34344 325.347 7.12142 324.015 7.05798C322.683 6.93111 321.319 6.8994 319.923 6.96283C318.528 7.02626 317.1 7.05798 315.641 7.05798L315.546 53.1115C315.546 53.4287 315.705 53.7459 316.022 54.063C316.339 54.3168 316.72 54.6022 317.164 54.9194C317.608 55.1731 318.02 55.3952 318.401 55.5855C318.845 55.7758 319.162 55.9026 319.352 55.9661C319.543 56.0295 319.891 56.1247 320.399 56.2515C320.97 56.315 321.572 56.4101 322.207 56.537C322.841 56.6004 323.412 56.6956 323.92 56.8224C324.49 56.8859 324.871 56.9176 325.061 56.9176V58.3449H305.555V62.5316H291.758V61.58Z" fill="white"/>
<path d="M241.46 62.4482C242.602 62.2579 243.744 62.0993 244.885 61.9724C246.027 61.7821 247.042 61.4967 247.93 61.116C248.818 60.672 249.548 60.0377 250.119 59.213C250.69 58.3884 250.975 57.2465 250.975 55.7875V11.0661C250.975 9.79744 250.658 8.78248 250.024 8.02127C249.389 7.19662 248.596 6.59399 247.645 6.21338C246.693 5.83277 245.647 5.57903 244.505 5.45217C243.426 5.3253 242.411 5.29358 241.46 5.35702V4.4055C251.927 3.64428 262.393 3.26367 272.86 3.26367V4.4055C272.606 4.4055 271.972 4.43721 270.957 4.50065C269.942 4.56408 268.864 4.72267 267.722 4.97641C266.58 5.16671 265.565 5.5156 264.677 6.02308C263.789 6.53055 263.345 7.26005 263.345 8.21157V58.6421C263.345 58.8958 263.504 59.1813 263.821 59.4985C264.138 59.8156 264.518 60.1328 264.963 60.45C265.407 60.7037 265.819 60.9257 266.2 61.116C266.644 61.3063 266.961 61.4332 267.151 61.4967C267.341 61.5601 267.69 61.6552 268.198 61.7821C268.769 61.8455 269.371 61.9407 270.006 62.0676C270.64 62.131 271.211 62.2262 271.718 62.353C272.289 62.4165 272.67 62.4482 272.86 62.4482V63.3997H241.46V62.4482Z" fill="white"/>
<path d="M188.935 19.0304L188.745 65.1791L172.759 65.6548V64.7033C173.647 64.513 174.63 64.291 175.709 64.0372C176.851 63.7835 177.897 63.4346 178.849 62.9906C179.8 62.4831 180.593 61.8488 181.228 61.0875C181.925 60.3263 182.274 59.3114 182.274 58.0427V12.3698C182.274 12.2429 182.084 11.9891 181.703 11.6085C181.386 11.1645 180.974 10.6887 180.466 10.1813C179.959 9.67378 179.42 9.19802 178.849 8.75398C178.341 8.2465 177.897 7.86589 177.517 7.61216C177.326 7.48529 177.009 7.39013 176.565 7.3267C176.121 7.26327 175.645 7.19983 175.138 7.1364C174.63 7.00953 174.155 6.85094 173.711 6.66063C173.267 6.47033 172.949 6.15316 172.759 5.70912C172.632 5.51881 172.537 5.23336 172.474 4.85275C172.474 4.47214 172.474 4.28184 172.474 4.28184H180.371C180.371 3.71093 180.086 3.26688 179.515 2.94971C178.944 2.5691 178.278 2.31537 177.517 2.1885C176.819 2.06163 176.153 1.99819 175.518 1.99819C174.948 1.93476 174.662 1.90304 174.662 1.90304C174.408 1.8396 173.964 1.77617 173.33 1.71274C172.759 1.58587 172.093 1.49072 171.332 1.42728C170.634 1.30041 169.968 1.20526 169.334 1.14183C168.699 1.01495 168.255 0.951519 168.001 0.951519V0H188.459V4.28184H197.499L233.656 40.9153V14.2728C233.656 12.9407 233.371 11.7988 232.8 10.8473C232.293 9.83237 231.563 8.976 230.612 8.27822C229.723 7.58044 228.709 7.04124 227.567 6.66063C226.425 6.21659 225.283 5.89942 224.141 5.70912V4.7576H237.463V66.6064H236.511L188.935 19.0304Z" fill="white"/>
<path d="M132.927 62.4482C134.069 62.2579 135.211 62.0993 136.353 61.9724C137.495 61.7821 138.51 61.4967 139.398 61.116C140.286 60.672 141.015 60.0377 141.586 59.213C142.157 58.3884 142.442 57.2465 142.442 55.7875V11.0661C142.442 9.79744 142.125 8.78248 141.491 8.02127C140.857 7.19662 140.064 6.59399 139.112 6.21338C138.161 5.83277 137.114 5.57903 135.972 5.45217C134.894 5.3253 133.879 5.29358 132.927 5.35702V4.4055C143.394 3.64428 153.861 3.26367 164.327 3.26367V4.4055C164.074 4.4055 163.439 4.43721 162.424 4.50065C161.409 4.56408 160.331 4.72267 159.189 4.97641C158.047 5.16671 157.032 5.5156 156.144 6.02308C155.256 6.53055 154.812 7.26005 154.812 8.21157V58.6421C154.812 58.8958 154.971 59.1813 155.288 59.4985C155.605 59.8156 155.986 60.1328 156.43 60.45C156.874 60.7037 157.286 60.9257 157.667 61.116C158.111 61.3063 158.428 61.4332 158.618 61.4967C158.809 61.5601 159.158 61.6552 159.665 61.7821C160.236 61.8455 160.839 61.9407 161.473 62.0676C162.107 62.131 162.678 62.2262 163.186 62.353C163.757 62.4165 164.137 62.4482 164.327 62.4482V63.3997H132.927V62.4482Z" fill="white"/>
<path d="M68.4858 3.70117H97.983C98.1099 3.70117 98.427 3.73289 98.9345 3.79632C99.442 3.85976 99.9812 3.95491 100.552 4.08177C101.186 4.14521 101.789 4.24036 102.36 4.36723C102.931 4.4941 103.375 4.58926 103.692 4.65269C104.009 4.77956 104.39 4.93814 104.834 5.12845C105.341 5.31875 105.595 5.47734 105.595 5.60421V32.2467C105.595 32.6908 105.373 33.0397 104.929 33.2934C104.548 33.4837 104.073 33.6423 103.502 33.7692C102.994 33.896 102.455 34.0546 101.884 34.2449C101.377 34.4352 101.028 34.7207 100.838 35.1013L117.965 54.1317C118.726 54.9563 119.456 55.781 120.153 56.6056C120.915 57.4303 121.708 58.2232 122.532 58.9844C123.357 59.6822 124.245 60.2848 125.197 60.7923C126.148 61.2364 127.226 61.5535 128.432 61.7438V62.6954H113.207L87.5163 36.0528H75.1465V56.0347C75.1465 57.1765 75.4637 58.0963 76.098 58.7941C76.7958 59.4919 77.6204 60.0628 78.572 60.5069C79.5869 60.8875 80.6336 61.1729 81.712 61.3632C82.8538 61.5535 83.837 61.6804 84.6617 61.7438V62.6954H68.4858V3.70117ZM75.1465 5.60421V32.5322C77.8742 32.5322 80.6019 32.4688 83.3296 32.3419C86.1207 32.215 88.5947 31.7393 90.7514 30.9146C92.9716 30.0265 94.7478 28.6627 96.08 26.8231C97.4755 24.9835 98.1733 22.3509 98.1733 18.9255C98.1733 16.0075 97.6341 13.6604 96.5557 11.8842C95.4773 10.1081 94.0183 8.74422 92.1787 7.7927C90.4025 6.84118 88.3092 6.23856 85.8987 5.98482C83.5516 5.66764 81.0776 5.50906 78.4768 5.50906C78.2231 5.50906 77.6522 5.54077 76.7641 5.60421C75.9394 5.60421 75.4002 5.60421 75.1465 5.60421Z" fill="white"/>
<path d="M15.1292 61.58C15.9538 61.5166 16.9054 61.3897 17.9838 61.1994C19.1256 61.0726 20.1723 60.8188 21.1238 60.4382C22.1387 60.0576 22.9634 59.5184 23.5977 58.8206C24.2955 58.1229 24.6444 57.1713 24.6444 55.9661L24.7396 9.91254C22.0753 9.91254 19.5379 9.97597 17.1274 10.1028C14.7803 10.2297 12.6235 10.6738 10.657 11.435C8.754 12.1328 7.04126 13.3063 5.51883 14.9556C4.05983 16.6049 2.85456 18.952 1.90304 21.9968H0V6.29677H28.5456L29.4972 3.91797H62.8004V19.3326C61.9123 19.3326 61.1511 18.952 60.5168 18.1908C59.8824 17.3661 59.2798 16.4146 58.7089 15.3362C58.2014 14.2578 57.6622 13.1794 57.0913 12.101C56.5838 11.0226 55.9495 10.198 55.1882 9.62708C53.9196 8.739 52.6191 8.10465 51.287 7.72405C50.0183 7.34344 48.7179 7.12142 47.3858 7.05798C46.0536 6.93111 44.6898 6.8994 43.2942 6.96283C41.8987 7.02626 40.4714 7.05798 39.0124 7.05798L38.9172 53.1115C38.9172 53.4287 39.0758 53.7459 39.393 54.063C39.7102 54.3168 40.0908 54.6022 40.5348 54.9194C40.9789 55.1731 41.3912 55.3952 41.7718 55.5855C42.2158 55.7758 42.533 55.9026 42.7233 55.9661C42.9136 56.0295 43.2625 56.1247 43.77 56.2515C44.3409 56.315 44.9435 56.4101 45.5779 56.537C46.2122 56.6004 46.7831 56.6956 47.2906 56.8224C47.8615 56.8859 48.2421 56.9176 48.4324 56.9176V58.3449H28.9263V62.5316H15.1292V61.58Z" fill="white"/>
</svg>
